<mxfile host="app.diagrams.net" modified="2024-05-17T21:32:34.260Z" agent="Mozilla/5.0 (Windows NT 10.0; Win64; x64) AppleWebKit/537.36 (KHTML, like Gecko) Chrome/124.0.0.0 Safari/537.36" etag="p9xnGlmNo3gjZDLkaeKa" version="24.4.0" type="github">
  <diagram name="PÃ¡gina-1" id="qRBYD4lwyCFqt-wxIryj">
    <mxGraphModel dx="1434" dy="818" grid="1" gridSize="10" guides="1" tooltips="1" connect="1" arrows="1" fold="1" page="1" pageScale="1" pageWidth="827" pageHeight="1169" math="0" shadow="0">
      <root>
        <mxCell id="0" />
        <mxCell id="1" parent="0" />
        <mxCell id="0Iji-i3Q_gorkuao791X-7" value="Reprodutor de Musica" style="swimlane;fontStyle=1;align=center;verticalAlign=top;childLayout=stackLayout;horizontal=1;startSize=26;horizontalStack=0;resizeParent=1;resizeParentMax=0;resizeLast=0;collapsible=1;marginBottom=0;whiteSpace=wrap;html=1;" vertex="1" parent="1">
          <mxGeometry x="50" y="535" width="160" height="100" as="geometry" />
        </mxCell>
        <mxCell id="0Iji-i3Q_gorkuao791X-9" value="" style="line;strokeWidth=1;fillColor=none;align=left;verticalAlign=middle;spacingTop=-1;spacingLeft=3;spacingRight=3;rotatable=0;labelPosition=right;points=[];portConstraint=eastwest;strokeColor=inherit;" vertex="1" parent="0Iji-i3Q_gorkuao791X-7">
          <mxGeometry y="26" width="160" height="8" as="geometry" />
        </mxCell>
        <mxCell id="0Iji-i3Q_gorkuao791X-10" value="+ tocar()&lt;div&gt;+ pausar()&lt;/div&gt;&lt;div&gt;+ selecionar()&lt;/div&gt;" style="text;strokeColor=none;fillColor=none;align=left;verticalAlign=top;spacingLeft=4;spacingRight=4;overflow=hidden;rotatable=0;points=[[0,0.5],[1,0.5]];portConstraint=eastwest;whiteSpace=wrap;html=1;" vertex="1" parent="0Iji-i3Q_gorkuao791X-7">
          <mxGeometry y="34" width="160" height="66" as="geometry" />
        </mxCell>
        <mxCell id="0Iji-i3Q_gorkuao791X-14" value="Telefone" style="swimlane;fontStyle=1;align=center;verticalAlign=top;childLayout=stackLayout;horizontal=1;startSize=26;horizontalStack=0;resizeParent=1;resizeParentMax=0;resizeLast=0;collapsible=1;marginBottom=0;whiteSpace=wrap;html=1;" vertex="1" parent="1">
          <mxGeometry x="290" y="535" width="160" height="100" as="geometry" />
        </mxCell>
        <mxCell id="0Iji-i3Q_gorkuao791X-15" value="" style="line;strokeWidth=1;fillColor=none;align=left;verticalAlign=middle;spacingTop=-1;spacingLeft=3;spacingRight=3;rotatable=0;labelPosition=right;points=[];portConstraint=eastwest;strokeColor=inherit;" vertex="1" parent="0Iji-i3Q_gorkuao791X-14">
          <mxGeometry y="26" width="160" height="8" as="geometry" />
        </mxCell>
        <mxCell id="0Iji-i3Q_gorkuao791X-16" value="+ ligar()&lt;div&gt;+ atender()&lt;/div&gt;&lt;div&gt;+ iniciarCorreioVoz&lt;/div&gt;" style="text;strokeColor=none;fillColor=none;align=left;verticalAlign=top;spacingLeft=4;spacingRight=4;overflow=hidden;rotatable=0;points=[[0,0.5],[1,0.5]];portConstraint=eastwest;whiteSpace=wrap;html=1;" vertex="1" parent="0Iji-i3Q_gorkuao791X-14">
          <mxGeometry y="34" width="160" height="66" as="geometry" />
        </mxCell>
        <mxCell id="0Iji-i3Q_gorkuao791X-29" value="Navegador Internet" style="swimlane;fontStyle=1;align=center;verticalAlign=top;childLayout=stackLayout;horizontal=1;startSize=26;horizontalStack=0;resizeParent=1;resizeParentMax=0;resizeLast=0;collapsible=1;marginBottom=0;whiteSpace=wrap;html=1;" vertex="1" parent="1">
          <mxGeometry x="560" y="535" width="160" height="100" as="geometry" />
        </mxCell>
        <mxCell id="0Iji-i3Q_gorkuao791X-30" value="" style="line;strokeWidth=1;fillColor=none;align=left;verticalAlign=middle;spacingTop=-1;spacingLeft=3;spacingRight=3;rotatable=0;labelPosition=right;points=[];portConstraint=eastwest;strokeColor=inherit;" vertex="1" parent="0Iji-i3Q_gorkuao791X-29">
          <mxGeometry y="26" width="160" height="8" as="geometry" />
        </mxCell>
        <mxCell id="0Iji-i3Q_gorkuao791X-31" value="+ exibirPagina()&lt;div&gt;+ adicionarPagina()&lt;/div&gt;&lt;div&gt;+ atualizarPagina()&lt;/div&gt;" style="text;strokeColor=none;fillColor=none;align=left;verticalAlign=top;spacingLeft=4;spacingRight=4;overflow=hidden;rotatable=0;points=[[0,0.5],[1,0.5]];portConstraint=eastwest;whiteSpace=wrap;html=1;" vertex="1" parent="0Iji-i3Q_gorkuao791X-29">
          <mxGeometry y="34" width="160" height="66" as="geometry" />
        </mxCell>
        <mxCell id="0Iji-i3Q_gorkuao791X-32" value="iPhone" style="html=1;whiteSpace=wrap;" vertex="1" parent="1">
          <mxGeometry x="315" y="330" width="110" height="50" as="geometry" />
        </mxCell>
        <mxCell id="0Iji-i3Q_gorkuao791X-38" value="" style="endArrow=block;dashed=1;endFill=0;endSize=12;html=1;rounded=0;exitX=0;exitY=0.5;exitDx=0;exitDy=0;entryX=0.438;entryY=0;entryDx=0;entryDy=0;entryPerimeter=0;" edge="1" parent="1" source="0Iji-i3Q_gorkuao791X-32" target="0Iji-i3Q_gorkuao791X-7">
          <mxGeometry width="160" relative="1" as="geometry">
            <mxPoint x="330" y="490" as="sourcePoint" />
            <mxPoint x="490" y="490" as="targetPoint" />
            <Array as="points">
              <mxPoint x="120" y="355" />
            </Array>
          </mxGeometry>
        </mxCell>
        <mxCell id="0Iji-i3Q_gorkuao791X-39" value="" style="endArrow=block;dashed=1;endFill=0;endSize=12;html=1;rounded=0;entryX=0.5;entryY=0;entryDx=0;entryDy=0;" edge="1" parent="1" target="0Iji-i3Q_gorkuao791X-29">
          <mxGeometry width="160" relative="1" as="geometry">
            <mxPoint x="430" y="360" as="sourcePoint" />
            <mxPoint x="130" y="545" as="targetPoint" />
            <Array as="points">
              <mxPoint x="640" y="360" />
            </Array>
          </mxGeometry>
        </mxCell>
        <mxCell id="0Iji-i3Q_gorkuao791X-40" value="" style="endArrow=block;dashed=1;endFill=0;endSize=12;html=1;rounded=0;exitX=0.5;exitY=1;exitDx=0;exitDy=0;" edge="1" parent="1" source="0Iji-i3Q_gorkuao791X-32">
          <mxGeometry width="160" relative="1" as="geometry">
            <mxPoint x="330" y="490" as="sourcePoint" />
            <mxPoint x="370" y="530" as="targetPoint" />
          </mxGeometry>
        </mxCell>
      </root>
    </mxGraphModel>
  </diagram>
</mxfile>
